<svg height="797pt" preserveAspectRatio="xMidYMid meet" viewBox="0 0 1280 797" width="1280pt" xmlns="http://www.w3.org/2000/svg"><g transform="matrix(.1 0 0 -.1 0 797)"><path d="m2740 5928-2375-1903 711-3 711-2 1276 957c701 527 1771 1330 2376 1785l1101 826 602-481c1185-945 1940-1541 1848-1457-25 22-44 45-42 51 1 6 3 26 4 45l1 34 46-37c25-21 42-32 38-26-9 15-887 758-1797 1522l-704 591h-711-710z"/><path d="m7520 7056c36-33 499-415 517-426 17-11 39 1 202 120l182 133 47-34c26-18 340-252 697-519 358-267 676-505 708-529 32-23 57-44 55-46s-113-16-247-30l-244-27-102-91c-56-51-479-438-940-862l-839-770 407-3 407-2 422 373c233 205 549 483 703 619 154 135 351 309 439 386l158 140 1142-855c1259-944 1190-893 1121-832-78 69-1046 910-1103 958-28 24-49 47-47 51 3 4-73 71-168 147-94 77-347 292-560 477-292 254-393 336-407 331-19-6-32 4-1110 884l-515 420h-470c-395 1-467-1-455-13z"/><path d="m5780 5351v-368l77-7c97-8 492-8 561 0l52 7v368 369h-345-345z"/><path d="m6620 5351v-368l53-7c68-8 463-8 560 0l77 7v368 369h-345-345z"/><path d="m9065 5690c10-11 20-20 23-20s-3 9-13 20-20 20-23 20 3-9 13-20z"/><path d="m9040 5606c0-2 8-10 18-17 15-13 16-12 3 4s-21 21-21 13z"/><path d="m5780 4485v-375h345 345v375 375h-345-345z"/><path d="m6620 4490v-370h345 345v370 370h-345-345z"/><path d="m11210 4806c0-2 26-23 58-46l57-42-50 46c-45 40-65 54-65 42z"/><path d="m7462 3958c-19-24-62-118-54-118 4 0 37 29 72 65l64 65h-36c-19 0-40-6-46-12z"/><path d="m3760 1050c-199-10-320-25-500-60-433-86-951-250-1618-515-305-120-740-309-649-281 303 94 1197 312 1592 390 772 151 1192 176 1835 111 462-48 815-113 1830-340 960-214 1341-282 1845-331 225-22 784-25 950-6 472 55 1000 169 1682 363 379 107 990 296 981 303-1 2-79-12-173-31-420-83-1196-211-1595-262-791-102-1277-110-1890-31-408 53-757 122-1555 305-929 214-1290 285-1715 339-313 40-747 60-1020 46z"/></g></svg>